<?xml version="1.0" encoding="UTF-8" standalone="no"?>
<!-- Created with Inkscape (http://www.inkscape.org/) -->

<svg
   width="800"
   height="800"
   viewBox="0 0 211.66668 211.66668"
   version="1.1"
   id="svg8"
   inkscape:version="1.2.1 (9c6d41e410, 2022-07-14)"
   sodipodi:docname="Scisors.svg"
   inkscape:export-filename="Rock_paper_scissors_lizard_spock.png"
   inkscape:export-xdpi="96"
   inkscape:export-ydpi="96"
   xmlns:inkscape="http://www.inkscape.org/namespaces/inkscape"
   xmlns:sodipodi="http://sodipodi.sourceforge.net/DTD/sodipodi-0.dtd"
   xmlns="http://www.w3.org/2000/svg"
   xmlns:svg="http://www.w3.org/2000/svg"
   xmlns:rdf="http://www.w3.org/1999/02/22-rdf-syntax-ns#"
   xmlns:cc="http://creativecommons.org/ns#"
   xmlns:dc="http://purl.org/dc/elements/1.1/">
  <defs
     id="defs2">
    <clipPath
       clipPathUnits="userSpaceOnUse"
       id="clipPath4720">
      <ellipse
         style="opacity:1;fill:none;fill-opacity:1;stroke:#ff0000;stroke-width:2.39162;stroke-miterlimit:4;stroke-dasharray:none;stroke-opacity:1"
         id="ellipse4722"
         cx="506.44904"
         cy="195.97214"
         rx="99.672447"
         ry="97.988647" />
    </clipPath>
  </defs>
  <sodipodi:namedview
     id="base"
     pagecolor="#ffffff"
     bordercolor="#666666"
     borderopacity="1.0"
     inkscape:pageopacity="0.0"
     inkscape:pageshadow="2"
     inkscape:zoom="0.17677669"
     inkscape:cx="421.43565"
     inkscape:cy="1120.0572"
     inkscape:document-units="mm"
     inkscape:current-layer="layer5"
     showgrid="false"
     fit-margin-top="0.1"
     fit-margin-left="0.1"
     fit-margin-bottom="0.1"
     fit-margin-right="0.1"
     inkscape:window-width="1920"
     inkscape:window-height="1009"
     inkscape:window-x="-8"
     inkscape:window-y="-8"
     inkscape:window-maximized="1"
     inkscape:showpageshadow="2"
     inkscape:pagecheckerboard="0"
     inkscape:deskcolor="#d1d1d1" />
  <metadata
     id="metadata5">
    <rdf:RDF>
      <cc:Work
         rdf:about="">
        <dc:format>image/svg+xml</dc:format>
        <dc:type
           rdf:resource="http://purl.org/dc/dcmitype/StillImage" />
      </cc:Work>
    </rdf:RDF>
  </metadata>
  <g
     inkscape:groupmode="layer"
     id="layer5"
     inkscape:label="Scisors"
     style="display:inline">
    <path
       inkscape:connector-curvature="0"
       id="path896"
       d="m 55.951052,40.786611 c -1.34828,-0.01 -2.47376,1.17824 -2.47376,1.17824 l 32.70912,45.772815 -57.34844,-10.980147 c -0.62838,3.108832 1.9513,4.001799 1.9513,4.001799 l 60.65573,19.612122 3.63802,2.57968 c 0,0 9.591148,9.78958 12.699998,17.26406 3.10886,7.47448 2.57969,15.61042 2.57969,15.61042 0,0 -0.61647,6.5669 -0.8971,10.26189 -0.28063,3.69504 0.37427,6.24395 1.63711,9.93894 4.39658,13.89136 19.30437,19.11458 23.9944,19.31664 1.64984,-0.0318 11.69299,0.88877 14.96704,-8.3721 3.27405,-9.26087 -4.95783,-16.83774 -4.95783,-16.83774 0,0 -3.08688,-2.61967 -10.47688,-10.47739 -7.39,-7.85771 -20.08882,-24.8357 -20.15898,-26.02839 -0.0702,-1.19269 -1.06505,-1.74665 -1.06505,-1.74665 l -0.99219,-7.40833 c 0,0 4.10104,-1.12448 6.68073,-1.91823 2.57969,-0.79375 5.6224,0 5.6224,0 0,0 1.98437,0.13229 10.71562,2.24896 8.73125,2.11667 29.10417,10.05417 29.10417,10.05417 0,0 3.50573,0.72763 6.41614,0.26458 2.91042,-0.46302 5.88698,-2.38125 5.88698,-2.38125 0,0 2.18281,-1.85208 3.57188,-3.9026 1.38906,-2.0505 0.52916,-7.60677 0.52916,-7.60677 0,0 -0.39687,-3.108831 -5.15937,-9.326508 -4.7625,-6.217674 -14.68438,-8.731199 -14.68438,-8.731199 0,0 -9.72344,-3.439562 -20.17447,4.034876 -10.45105,7.474438 -18.38855,6.283814 -21.62969,6.151527 -3.24115,-0.13229 -18.05781,-4.762473 -18.05781,-4.762473 0,0 -41.407298,-44.516032 -43.391668,-46.831142 -0.62012,-0.72347 -1.27903,-0.97536 -1.89187,-0.9798 z m 98.172808,45.317044 c 11.29428,0.0156 24.08069,11.549607 21.98781,18.897985 -2.97656,10.45104 -12.22775,3.06054 -15.21354,2.11666 -2.98579,-0.94387 -7.60678,-3.10885 -12.89844,-3.57187 -8.6651,-2.51357 -6.15156,-10.120254 -6.15156,-10.120254 3.00447,-5.28235 7.50704,-7.329111 12.27573,-7.322521 z m -33.33388,49.388085 c 2.19892,-0.008 5.41861,0.86122 7.94577,5.19351 4.25627,6.45456 8.82059,9.60869 12.81576,13.75108 3.52054,3.6503 5.42549,8.74591 0.65474,14.40532 -1.93916,1.35366 -2.73354,1.50289 -4.95164,1.59578 -21.0501,0.88144 -29.9383,-29.52556 -18.99574,-34.52296 0,0 1.02659,-0.41693 2.53111,-0.42273 z"
       style="fill:#000000;fill-opacity:1;stroke:#000000;stroke-width:0.264583px;stroke-linecap:butt;stroke-linejoin:miter;stroke-opacity:0.900552" />
    <circle
       r="100"
       cy="106.68111"
       cx="106.73008"
       id="path848"
       style="opacity:1;fill:none;fill-opacity:1;stroke:#000000;stroke-width:4.2;stroke-miterlimit:4;stroke-dasharray:none;stroke-opacity:1" />
  </g>
</svg>
