<?xml version="1.0" encoding="UTF-8" standalone="no"?>
<!-- Created with Inkscape (http://www.inkscape.org/) -->

<svg
   width="800"
   height="800"
   viewBox="0 0 211.66668 211.66668"
   version="1.1"
   id="svg8"
   inkscape:version="1.2.1 (9c6d41e410, 2022-07-14)"
   sodipodi:docname="Spock.svg"
   inkscape:export-filename="Rock_paper_scissors_lizard_spock.png"
   inkscape:export-xdpi="96"
   inkscape:export-ydpi="96"
   xmlns:inkscape="http://www.inkscape.org/namespaces/inkscape"
   xmlns:sodipodi="http://sodipodi.sourceforge.net/DTD/sodipodi-0.dtd"
   xmlns="http://www.w3.org/2000/svg"
   xmlns:svg="http://www.w3.org/2000/svg"
   xmlns:rdf="http://www.w3.org/1999/02/22-rdf-syntax-ns#"
   xmlns:cc="http://creativecommons.org/ns#"
   xmlns:dc="http://purl.org/dc/elements/1.1/">
  <defs
     id="defs2">
    <clipPath
       clipPathUnits="userSpaceOnUse"
       id="clipPath4720">
      <ellipse
         style="opacity:1;fill:none;fill-opacity:1;stroke:#ff0000;stroke-width:2.39162;stroke-miterlimit:4;stroke-dasharray:none;stroke-opacity:1"
         id="ellipse4722"
         cx="506.44904"
         cy="195.97214"
         rx="99.672447"
         ry="97.988647" />
    </clipPath>
  </defs>
  <sodipodi:namedview
     id="base"
     pagecolor="#ffffff"
     bordercolor="#666666"
     borderopacity="1.0"
     inkscape:pageopacity="0.0"
     inkscape:pageshadow="2"
     inkscape:zoom="0.17677669"
     inkscape:cx="421.43565"
     inkscape:cy="1120.0572"
     inkscape:document-units="mm"
     inkscape:current-layer="layer7"
     showgrid="false"
     fit-margin-top="0.1"
     fit-margin-left="0.1"
     fit-margin-bottom="0.1"
     fit-margin-right="0.1"
     inkscape:window-width="1920"
     inkscape:window-height="1009"
     inkscape:window-x="-8"
     inkscape:window-y="-8"
     inkscape:window-maximized="1"
     inkscape:showpageshadow="2"
     inkscape:pagecheckerboard="0"
     inkscape:deskcolor="#d1d1d1" />
  <metadata
     id="metadata5">
    <rdf:RDF>
      <cc:Work
         rdf:about="">
        <dc:format>image/svg+xml</dc:format>
        <dc:type
           rdf:resource="http://purl.org/dc/dcmitype/StillImage" />
      </cc:Work>
    </rdf:RDF>
  </metadata>
  <g
     inkscape:groupmode="layer"
     id="layer7"
     inkscape:label="Spock"
     style="display:inline">
    <g
       id="g4688"
       transform="translate(-492.17161,224.56369)">
      <ellipse
         ry="1.256284"
         rx="1.3555028"
         cy="-118.71005"
         cx="595.03137"
         id="path4545"
         style="opacity:1;fill:#000000;fill-opacity:1;stroke:none;stroke-width:3.78127;stroke-miterlimit:4;stroke-dasharray:none;stroke-opacity:1" />
      <circle
         r="1.2862346"
         cy="-114.01044"
         cx="636.66266"
         id="path4547"
         style="opacity:1;fill:#000000;fill-opacity:1;stroke:none;stroke-width:2.03873;stroke-miterlimit:4;stroke-dasharray:none;stroke-opacity:1" />
      <path
         inkscape:connector-curvature="0"
         id="path4549"
         d="m 633.10804,-113.96365 c -0.0468,2.5023 2.26845,2.73616 2.26845,2.73616 0,0 2.52569,0.39757 3.90547,-0.58465 1.37977,-0.98221 0.42095,-3.22728 0.42095,-3.22728 z"
         style="fill:none;stroke:#000000;stroke-width:0.264583px;stroke-linecap:butt;stroke-linejoin:miter;stroke-opacity:1" />
      <path
         sodipodi:nodetypes="cccc"
         inkscape:connector-curvature="0"
         id="path4551"
         d="m 628.82837,-114.0572 c 5.94009,-4.3732 19.43383,-2.1983 19.41047,3.53128 -7.60039,-7.71739 -17.49279,-2.3386 -17.49279,-2.3386 z"
         style="fill:#000000;fill-opacity:1;stroke:#000000;stroke-width:0.264583px;stroke-linecap:butt;stroke-linejoin:miter;stroke-opacity:1" />
      <path
         sodipodi:nodetypes="csc"
         inkscape:connector-curvature="0"
         id="path4553"
         d="m 646.6747,-112.11199 c -5.15937,4.99401 -13.52682,4.23333 -16.00729,-0.76068 -0.40803,-0.8215 3.86953,-2.61275 3.86953,-2.61275"
         style="fill:none;stroke:#000000;stroke-width:0.765;stroke-linecap:butt;stroke-linejoin:miter;stroke-miterlimit:4;stroke-dasharray:none;stroke-opacity:1" />
      <path
         inkscape:connector-curvature="0"
         id="path4555"
         d="m 628.82837,-114.0572 c 8.20852,-7.5537 10.73423,-6.01023 12.23092,-6.29087 1.49673,-0.28062 11.08501,-6.73518 11.08501,-6.73518 l -0.56126,5.0514 c 0,0 -2.19829,2.3386 -5.23848,3.74176 -3.0402,1.40317 -2.94664,-0.18709 -6.2207,1.68381 -3.27406,1.87087 -3.41437,1.30961 -3.41437,1.30961"
         style="fill:#000000;fill-opacity:1;stroke:#000000;stroke-width:0.264583px;stroke-linecap:butt;stroke-linejoin:miter;stroke-opacity:1" />
      <path
         sodipodi:nodetypes="cccc"
         inkscape:connector-curvature="0"
         id="path4557"
         d="m 608.59942,-113.84673 c -3.13373,-0.98221 -7.43678,0.74835 -10.47697,0.65482 -3.0402,-0.0936 -8.37221,-2.01121 -9.35443,-3.97563 -0.51449,-0.84192 9.5883,-9.16737 19.8314,3.32081 z"
         style="fill:none;stroke:#000000;stroke-width:0.765;stroke-linecap:butt;stroke-linejoin:miter;stroke-miterlimit:4;stroke-dasharray:none;stroke-opacity:1" />
      <path
         inkscape:connector-curvature="0"
         transform="matrix(0.26458333,0,0,0.26458333,0,-407.20003)"
         id="path4577"
         d="m 2225.265,1096.1858 c 0,0 0,0 0,0 v 0 c -1.591,-16.2635 15.2028,-17.1474 20.5061,-16.9706 5.3033,0.1769 20.5061,-1.7678 37.8302,3.182 17.3241,4.9497 -11.844,-20.5061 -14.3189,-22.4507 -2.4749,-1.9445 -43.6639,-28.8146 -43.6639,-28.8146 0,0 4.773,-8.3085 21.2132,-2.2981 16.4403,6.0104 49.4975,28.2843 57.2757,36.7696 7.7782,8.4853 11.4905,14.8492 22.0971,20.5061 10.6066,5.6568 11.4905,11.1369 11.4905,11.1369 0,0 -5.6569,-4.773 -10.9602,-4.9497 7.4246,8.4852 10.6066,18.7383 5.1265,26.5165 -7.6014,-15.2029 -20.6828,-17.1474 -45.9619,-25.1023 -0.6171,-0.1942 -1.2402,-0.3775 -1.8687,-0.5502 l -3.9682,-3.5548 -9.3125,-4.625 -13,-2.75 -15.0625,1.4375 -11.6875,5.5 -4.125,3.0625 z"
         style="fill:#000000;fill-opacity:1;stroke:#000000;stroke-width:1px;stroke-linecap:butt;stroke-linejoin:miter;stroke-opacity:1" />
      <path
         inkscape:connector-curvature="0"
         id="path4580"
         d="m 591.94853,-119.81017 c -1.12252,0.95882 -2.54908,0.21047 -0.81852,1.91764 1.73056,1.7072 2.80633,2.43216 4.37319,2.57247 1.56689,0.14033 3.13376,-1.07574 3.15714,-1.52009 0.0233,-0.44434 0.45543,-3.41714 -0.42095,-3.7184 -0.87638,-0.30122 -2.66602,-0.65479 -2.66602,-0.65479 z"
         style="fill:none;stroke:#000000;stroke-width:0.264583px;stroke-linecap:butt;stroke-linejoin:miter;stroke-opacity:1" />
      <path
         inkscape:connector-curvature="0"
         id="path4582"
         d="m 595.59676,-65.437531 c 4.44336,0.935434 16.51058,-1.5435 18.70887,0 2.19829,1.543473 3.41437,1.870869 4.72398,0.888656 1.30963,-0.982213 2.05798,-2.385377 4.02241,-0.935434 1.96442,1.449943 4.06918,1.63703 4.06918,1.63703 l -10.33666,0.935434 c 0,0 -1.1693,-0.09353 -1.59025,0.374174 -0.42095,0.46773 -1.54347,0.701595 -1.96443,0.374174 -0.42095,-0.327396 -1.87089,-0.888657 -2.75955,-0.982213 -0.88868,-0.09353 -12.58173,-0.374174 -14.87355,-2.291821 z"
         style="fill:#000000;fill-opacity:1;stroke:#000000;stroke-width:0.264583px;stroke-linecap:butt;stroke-linejoin:miter;stroke-opacity:1" />
      <path
         inkscape:connector-curvature="0"
         id="path4584"
         d="m 623.66006,-63.847279 -0.0468,5.00462 c 0,0 0.14033,0.841904 -0.70157,1.543473 -0.84191,0.701596 -14.35907,3.320838 -19.59756,-0.748347 -5.23848,-4.069186 0.0936,0.09353 0.0936,0.09353"
         style="fill:none;stroke:#000000;stroke-width:0.665;stroke-linecap:butt;stroke-linejoin:miter;stroke-miterlimit:4;stroke-dasharray:none;stroke-opacity:1" />
      <path
         inkscape:connector-curvature="0"
         id="path4586"
         d="m 600.83525,-85.876964 c -5.42558,8.793163 -11.78661,13.657474 -12.34787,18.147586 -0.56126,4.490138 4.20949,13.376857 4.20949,13.376857 v 0 0"
         style="fill:none;stroke:#000000;stroke-width:0.465;stroke-linecap:butt;stroke-linejoin:miter;stroke-miterlimit:4;stroke-dasharray:none;stroke-opacity:1" />
      <path
         inkscape:connector-curvature="0"
         id="path4588"
         d="m 631.23714,-79.796601 c 2.05798,4.115965 1.12255,13.18977 1.12255,13.18977"
         style="fill:none;stroke:#000000;stroke-width:0.465;stroke-linecap:butt;stroke-linejoin:miter;stroke-miterlimit:4;stroke-dasharray:none;stroke-opacity:1" />
      <path
         sodipodi:nodetypes="csscscscsscscccscsccccccsccccccccccccccccscsscsssccscccccsccccccccccc"
         inkscape:connector-curvature="0"
         id="path4590"
         d="m 652.19788,-114.69168 c 0,0 -0.92604,15.345837 -1.85208,17.991671 -0.92604,2.645833 -12.83229,23.283333 -15.08125,30.559374 -2.24896,7.276042 -11.90625,20.6375 -11.90625,20.6375 0,0 -5.95313,8.202083 -13.22917,7.011458 -7.27604,-1.190625 -15.34583,-0.926041 -15.34583,-0.926041 0,0 -4.49792,0.132291 -9.26042,-5.291667 -4.7625,-5.423958 -8.86354,-8.202083 -8.86354,-8.202083 0,0 -2.51354,-4.233333 -6.87917,-11.90625 -4.36562,-7.672917 -8.33437,-11.641667 -9.12812,-22.886458 -0.79375,-11.244792 -1.32292,-13.493754 -1.32292,-13.493754 0,0 -0.79375,-4.10104 -4.63021,-6.35 -3.83645,-2.24895 -1.19062,-8.20208 -1.19062,-8.20208 l 1.85208,-2.64583 3.83646,3.175 c 0,0 3.70417,8.59896 5.02708,8.73125 1.32292,0.13229 -1.4552,-10.05417 -0.26458,-12.03854 1.19063,-1.98438 1.5875,-1.98438 1.71979,-3.96875 0.13229,-1.98438 -0.26458,-2.64584 0.26459,-4.49792 0.52916,-1.85208 1.5875,-3.70417 1.5875,-3.70417 0,0 0.66145,-0.79375 2.64583,-1.5875 1.98437,-0.79375 2.38125,-0.79375 3.175,-1.45521 0.79375,-0.66145 0.92604,-0.39687 1.85208,-1.71979 0.92604,-1.32291 1.19063,-1.05833 1.71979,-2.51354 0.52917,-1.45521 0.92605,-2.77812 0.92605,-3.43958 0,-0.66146 1.0959,-6.76291 2.03133,-7.60481 0.93544,-0.8419 1.59026,-1.59025 2.24507,-1.87088 0.65482,-0.28064 2.89989,-0.18709 2.89989,-0.18709 0,0 1.49669,0.37418 2.89986,0.93544 1.40316,0.56127 1.59025,0.56127 3.08697,1.02899 1.4967,0.46772 2.61925,0.8419 3.36759,0.65481 0.74835,-0.18709 2.89986,-0.93545 2.89986,-0.93545 0,0 5.98686,-3.83531 7.39003,-3.27405 -1.63703,0.60804 -7.20291,3.74178 -5.70622,4.02241 1.49672,0.28063 2.61924,0.8419 3.55468,0.65481 0.93546,-0.18709 1.21608,-0.74835 2.52571,0.28063 1.30961,1.02899 2.43216,1.87089 3.1805,2.15152 0.74835,0.28063 0.84191,0.37418 2.99342,0.65481 2.15151,0.28064 3.74176,0.37418 4.20949,0.65481 0.46773,0.28064 1.77734,1.21608 2.71278,1.96444 0.93546,0.74835 4.20949,1.87087 4.20949,1.87087 0,0 3.32298,0.0571 4.11673,-0.009 0.79375,-0.0661 1.19063,0.19844 1.25677,0.52917 0.0661,0.33073 0.0661,0.33073 0.0661,0.72761 0,0.39687 -0.92604,0.39687 0,0.59531 0.92604,0.19844 1.12448,0 1.65365,-0.13229 0.52916,-0.1323 1.5875,-0.39688 2.18281,-0.39688 0.59531,0 0.52916,-0.13229 1.52135,-0.13229 h 2.11667 c 2.3151,0 0.99219,0.26458 2.38125,-0.0662 1.38906,-0.33073 0.92604,-0.19843 1.52135,-0.33073 0.59532,-0.13229 0.52917,-0.13229 1.12448,-0.26458 0.59531,-0.13229 0.52917,-0.19844 1.12448,-0.26458 0.59531,-0.0662 -0.0661,-0.13229 1.05833,-0.19844 1.12448,-0.0661 1.25678,-0.19844 1.65365,-0.13229 0.39688,0.0661 -0.0661,-0.39688 1.19063,0.19844 1.25677,0.59531 1.32291,0.46302 1.38906,0.7276 0.0661,0.26458 0,0.19844 0.13229,0.66146 0.13229,0.46302 0.0661,0.26458 0.46302,0.79375 0.39688,0.52917 -0.13229,0.13229 0.52917,0.7276 0.66146,0.59532 0.59531,0.79375 0.92604,0.8599 0.33073,0.0661 -0.0661,0.39687 0.99219,0.19844 1.05833,-0.19844 1.19062,-0.19844 1.52135,-0.46302 0.33073,-0.26459 0.33073,-0.1323 0.66146,-0.66146 0.33073,-0.52917 0.46302,-0.79375 0.85989,-1.12448 0.39688,-0.33073 0.99219,-1.12448 0.99219,-1.12448 0,0 -0.0787,8.42282 -0.85989,10.51719 -0.78119,2.09436 -0.72761,14.48593 -0.72761,14.48593 z"
         style="fill:none;stroke:#000000;stroke-width:1.365;stroke-linecap:butt;stroke-linejoin:miter;stroke-miterlimit:4;stroke-dasharray:none;stroke-opacity:1" />
      <path
         inkscape:connector-curvature="0"
         id="path4605"
         d="m 591.74059,-139.29793 c 7.67292,-0.26458 18.25625,7.67292 18.25625,7.67292"
         style="fill:none;stroke:#000000;stroke-width:0.465;stroke-linecap:butt;stroke-linejoin:miter;stroke-miterlimit:4;stroke-dasharray:none;stroke-opacity:1" />
      <path
         inkscape:connector-curvature="0"
         id="path4607"
         d="m 649.85246,-129.8428 c -15.06064,-1.30964 -19.92493,2.80633 -22.82481,2.71277 -2.89986,-0.0935 -3.83532,-0.74835 -3.83532,-0.74835"
         style="fill:none;stroke:#000000;stroke-width:0.465;stroke-linecap:butt;stroke-linejoin:miter;stroke-miterlimit:4;stroke-dasharray:none;stroke-opacity:1" />
      <path
         inkscape:connector-curvature="0"
         id="path4609"
         d="m 593.91295,-141.91002 c 15.52837,1.3096 27.31495,11.88013 27.31495,11.88013"
         style="fill:none;stroke:#000000;stroke-width:0.465;stroke-linecap:butt;stroke-linejoin:miter;stroke-miterlimit:4;stroke-dasharray:none;stroke-opacity:1" />
      <path
         inkscape:connector-curvature="0"
         id="path4611"
         d="m 594.38068,-146.86788 c 10.66406,2.43215 23.66672,7.95127 23.66672,7.95127"
         style="fill:none;stroke:#000000;stroke-width:0.465;stroke-linecap:butt;stroke-linejoin:miter;stroke-miterlimit:4;stroke-dasharray:none;stroke-opacity:1" />
      <path
         inkscape:connector-curvature="0"
         id="path4613"
         d="m 651.53626,-132.92978 c -10.94467,-2.15151 -17.3057,-0.65481 -21.23455,-0.8419 -3.92888,-0.18709 -5.98684,-0.8419 -5.98684,-0.8419"
         style="fill:none;stroke:#000000;stroke-width:0.465;stroke-linecap:butt;stroke-linejoin:miter;stroke-miterlimit:4;stroke-dasharray:none;stroke-opacity:1" />
      <path
         id="path4615"
         inkscape:connector-curvature="0"
         d="m 606.22653,-90.416155 c -0.33073,4.299479 -0.33073,4.299479 -0.33073,4.299479 0,0 -0.39688,3.638021 1.65365,3.108854 2.05052,-0.529167 4.23333,-1.124479 6.61458,0.198437 2.38125,1.322917 2.51354,1.058334 2.51354,1.058334 0,0 1.38906,2.645833 4.10104,2.778125 2.71198,0.132291 5.35781,-0.992188 5.75469,-1.785938 0.39687,-0.79375 -0.46302,-1.124479 0.26458,-1.322916 0.72761,-0.198438 2.64584,-0.264584 2.64584,-1.256771 0,-0.992188 -0.52917,-4.167188 -0.52917,-4.167188 v 0"
         style="fill:none;stroke:#000000;stroke-width:0.865;stroke-linecap:butt;stroke-linejoin:miter;stroke-miterlimit:4;stroke-dasharray:none;stroke-opacity:1" />
      <path
         sodipodi:nodetypes="ccc"
         inkscape:connector-curvature="0"
         id="path4619"
         d="m 610.36064,-83.503916 c 1.88516,1.058334 3.43959,1.570964 4.10104,0.942578 -2.06706,-1.389062 -4.10104,-0.942578 -4.10104,-0.942578 z"
         style="fill:#000000;fill-opacity:1;stroke:#000000;stroke-width:0.264583px;stroke-linecap:butt;stroke-linejoin:miter;stroke-opacity:1" />
      <path
         sodipodi:nodetypes="cccc"
         inkscape:connector-curvature="0"
         id="path4621"
         d="m 626.66516,-81.310838 c 0.51451,-0.198781 0.58466,-0.777583 0.58466,-0.777583 l -0.58465,0.233865 z"
         style="fill:#000000;fill-opacity:1;stroke:#000000;stroke-width:0.264583px;stroke-linecap:butt;stroke-linejoin:miter;stroke-opacity:1" />
      <path
         inkscape:connector-curvature="0"
         id="path4623"
         d="m 628.82837,-114.0572 c 0,0 -2.64263,1.52008 -2.64263,4.51352 0,2.99342 -0.28061,12.441398 -0.28061,12.441398 v 0"
         style="fill:none;stroke:#000000;stroke-width:0.865;stroke-linecap:butt;stroke-linejoin:miter;stroke-miterlimit:4;stroke-dasharray:none;stroke-opacity:1" />
      <path
         sodipodi:nodetypes="ccsc"
         inkscape:connector-curvature="0"
         id="path4625"
         d="m 616.97163,-111.18071 c 0,0 0.14033,3.69499 -0.51448,4.63045 -0.65482,0.93543 -2.15152,4.20949 -2.43216,4.95784 -0.28064,0.74835 -0.31525,0.81029 -0.31525,0.81029"
         style="fill:none;stroke:#000000;stroke-width:0.865;stroke-linecap:butt;stroke-linejoin:miter;stroke-miterlimit:4;stroke-dasharray:none;stroke-opacity:1" />
      <path
         sodipodi:nodetypes="cccc"
         inkscape:connector-curvature="0"
         id="path4627"
         d="m 603.40771,-57.954003 c 0,0 10.17294,2.408766 16.41703,1.496721 0,0 -5.16832,1.543474 -7.01583,1.473333 -1.8475,-0.07017 -6.61823,-0.444368 -9.4012,-2.970054 z"
         style="fill:#000000;fill-opacity:1;stroke:#000000;stroke-width:0.264583px;stroke-linecap:butt;stroke-linejoin:miter;stroke-opacity:1" />
      <path
         sodipodi:nodetypes="cccsccccscsccccccsccccccccccccccccscsscsssccscccccsccccccccccc"
         inkscape:connector-curvature="0"
         id="path4590-4"
         d="m 652.19818,-114.6916 c 0,0 5.44205,-7.58645 6.24269,-20.53341 0.93441,-15.11003 6.41737,-9.32475 -2.46653,-31.4384 -20.38756,-36.04357 -46.96216,-35.70644 -51.62034,-35.75179 -6.20516,-0.0604 -56.54496,-0.35727 -57.45999,51.21111 -5.82987,8.67743 8.46637,32.80825 6.61459,35.45416 l 1.85208,-2.64583 3.83646,3.175 c 0,0 3.70417,8.59896 5.02708,8.73125 1.32292,0.13229 -1.4552,-10.05417 -0.26458,-12.03854 1.19063,-1.98438 1.5875,-1.98438 1.71979,-3.96875 0.13229,-1.98438 -0.26458,-2.64584 0.26459,-4.49792 0.52916,-1.85208 1.5875,-3.70417 1.5875,-3.70417 0,0 0.66145,-0.79375 2.64583,-1.5875 1.98437,-0.79375 2.38125,-0.79375 3.175,-1.45521 0.79375,-0.66145 0.92604,-0.39687 1.85208,-1.71979 0.92604,-1.32291 1.19063,-1.05833 1.71979,-2.51354 0.52917,-1.45521 0.92605,-2.77812 0.92605,-3.43958 0,-0.66146 1.0959,-6.76291 2.03133,-7.60481 0.93544,-0.8419 1.59026,-1.59025 2.24507,-1.87088 0.65482,-0.28064 2.89989,-0.18709 2.89989,-0.18709 0,0 1.49669,0.37418 2.89986,0.93544 1.40316,0.56127 1.59025,0.56127 3.08697,1.02899 1.4967,0.46772 2.61925,0.8419 3.36759,0.65481 0.74835,-0.18709 2.89986,-0.93545 2.89986,-0.93545 0,0 5.98686,-3.83531 7.39003,-3.27405 -1.63703,0.60804 -7.20291,3.74178 -5.70622,4.02241 1.49672,0.28063 2.61924,0.8419 3.55468,0.65481 0.93546,-0.18709 1.21608,-0.74835 2.52571,0.28063 1.30961,1.02899 2.43216,1.87089 3.1805,2.15152 0.74835,0.28063 0.84191,0.37418 2.99343,0.65481 2.1515,0.28064 3.74175,0.37418 4.20948,0.65481 0.46773,0.28064 1.77734,1.21608 2.71279,1.96444 0.93545,0.74835 4.20948,1.87087 4.20948,1.87087 0,0 3.32298,0.0571 4.11673,-0.009 0.79375,-0.0661 1.19063,0.19844 1.25677,0.52917 0.0661,0.33073 0.0661,0.33073 0.0661,0.72761 0,0.39687 -0.92604,0.39687 0,0.59531 0.92604,0.19844 1.12448,0 1.65365,-0.13229 0.52916,-0.1323 1.5875,-0.39688 2.18281,-0.39688 0.59531,0 0.52916,-0.13229 1.52135,-0.13229 h 2.11667 c 2.3151,0 0.99219,0.26458 2.38125,-0.0662 1.38906,-0.33073 0.92604,-0.19843 1.52135,-0.33073 0.59532,-0.13229 0.52917,-0.13229 1.12448,-0.26458 0.59531,-0.13229 0.52917,-0.19844 1.12448,-0.26458 0.59531,-0.0662 -0.0661,-0.13229 1.05833,-0.19844 1.12448,-0.0661 1.25678,-0.19844 1.65365,-0.13229 0.39688,0.0661 -0.0661,-0.39688 1.19063,0.19844 1.25677,0.59531 1.32291,0.46302 1.38906,0.7276 0.0661,0.26458 0,0.19844 0.13229,0.66146 0.13229,0.46302 0.0661,0.26458 0.46302,0.79375 0.39688,0.52917 -0.13229,0.13229 0.52917,0.7276 0.66146,0.59532 0.59531,0.79375 0.92604,0.8599 0.33073,0.0661 -0.0661,0.39687 0.99219,0.19844 1.05833,-0.19844 1.19062,-0.19844 1.52135,-0.46302 0.33073,-0.26459 0.33073,-0.1323 0.66146,-0.66146 0.33073,-0.52917 0.46302,-0.79375 0.8599,-1.12448 0.39688,-0.33073 0.99219,-1.12448 0.99219,-1.12448 0,0 -0.0787,8.42282 -0.85989,10.51719 -0.7812,2.09436 -0.72762,14.48593 -0.72762,14.48593 z"
         style="fill:#000000;fill-opacity:1;stroke:#000000;stroke-width:0.264583px;stroke-linecap:butt;stroke-linejoin:miter;stroke-opacity:1" />
      <path
         inkscape:connector-curvature="0"
         id="path4644"
         d="m 546.89401,-151.20409 c 0,0 -5.42425,8.59887 -4.76279,17.33012 0.66146,8.73125 -0.39688,21.43125 -0.39688,21.43125 0,0 -0.39687,4.7625 1.19063,7.01146 1.5875,2.24896 5.55625,8.202084 5.55625,8.202084 0,0 2.11666,2.645833 5.55625,1.719792 3.43958,-0.926042 5.96566,0.79248 5.96566,0.79248"
         style="fill:none;stroke:#000000;stroke-width:1.365;stroke-linecap:butt;stroke-linejoin:miter;stroke-miterlimit:4;stroke-dasharray:none;stroke-opacity:1" />
      <path
         inkscape:connector-curvature="0"
         id="path4646"
         d="m 543.45416,-133.74168 0.0661,-4.29947"
         style="fill:none;stroke:#000000;stroke-width:0.264583px;stroke-linecap:butt;stroke-linejoin:miter;stroke-opacity:1" />
      <path
         inkscape:connector-curvature="0"
         id="path4648"
         d="m 543.85103,-122.89376 c 1.12448,-1.45521 0.59532,-5.62239 0.59532,-5.62239"
         style="fill:none;stroke:#000000;stroke-width:0.465;stroke-linecap:butt;stroke-linejoin:miter;stroke-miterlimit:4;stroke-dasharray:none;stroke-opacity:1" />
      <path
         sodipodi:nodetypes="cczzcc"
         inkscape:connector-curvature="0"
         id="path4650"
         d="m 543.6526,-115.1547 c -0.66146,3.37344 0.52916,7.34219 2.91039,9.45886 2.38125,2.11666 2.28181,1.98075 3.04271,2.44739 0.7609,0.46664 0.89297,0.32246 1.32291,0.59532 0.42995,0.27286 0.72761,0.99218 0.72761,0.99218 v 0"
         style="fill:none;stroke:#000000;stroke-width:0.264583px;stroke-linecap:butt;stroke-linejoin:miter;stroke-opacity:1" />
      <path
         sodipodi:nodetypes="cc"
         inkscape:connector-curvature="0"
         id="path4652"
         d="m 547.70207,-121.51737 c 1.87087,-3.5079 0.74835,-8.60608 -1.26285,-10.28988"
         style="fill:none;stroke:#000000;stroke-width:0.265;stroke-linecap:butt;stroke-linejoin:miter;stroke-miterlimit:4;stroke-dasharray:none;stroke-opacity:1" />
      <path
         sodipodi:nodetypes="cc"
         inkscape:connector-curvature="0"
         id="path4654"
         d="m 555.13882,-105.10034 c -9.16734,-5.00462 -5.70619,-8.09157 -3.08695,-11.88011"
         style="fill:none;stroke:#000000;stroke-width:0.965;stroke-linecap:butt;stroke-linejoin:miter;stroke-miterlimit:4;stroke-dasharray:none;stroke-opacity:1" />
    </g>
    <circle
       r="100"
       cy="106.70464"
       cx="107.30879"
       id="path829"
       style="opacity:1;fill:none;fill-opacity:1;stroke:#000000;stroke-width:4.2;stroke-miterlimit:4;stroke-dasharray:none;stroke-opacity:1" />
  </g>
</svg>
